# xmcd
#
# Track frame offsets:
#	150
#	19702
#	36230
#	52275
#	70807
#	92650
#	106822
#	125604
#	145117
#	162320
#	180412
#	197412
#
# Disc length: 2845 seconds
#
# Revision: 11
# Processed by: cddbd v1.5.2PL0 Copyright (c) Steve Scherf et al.
# Submitted via: EZCDAudioConverter 2.4.0.1
#
DISCID=a00b1b0c
DTITLE=Zezé Di Camargo and Luciano - Zezé Di Camargo and Luciano (1993)
DYEAR=1993
DGENRE=Sertanejo
TTITLE0=Zezé Di Camargo and Luciano - Saudade Bandida
TTITLE1=Zezé Di Camargo and Luciano - Fazer Amor
TTITLE2=Zezé Di Camargo and Luciano - Andorinha Machucada
TTITLE3=Zezé Di Camargo and Luciano - Quatro Estações
TTITLE4=Zezé Di Camargo and Luciano - Tudo De Novo
TTITLE5=Zezé Di Camargo and Luciano - Vá Embora
TTITLE6=Zezé Di Camargo and Luciano - Faz Mais Uma Vez Comigo
TTITLE7=Zezé Di Camargo and Luciano - Melhor Que Antes
TTITLE8=Zezé Di Camargo and Luciano Feat. Willie Nelson - Eu Só Penso Em Voçê (A
TTITLE8=lways On My Mind)
TTITLE9=Zezé Di Camargo and Luciano - Olhos De Lua
TTITLE10=Zezé Di Camargo and Luciano - Mais Do Que Eu
TTITLE11=Zezé Di Camargo and Luciano - Pedaço De Mim
EXTD=
EXTT0=
EXTT1=
EXTT2=
EXTT3=
EXTT4=
EXTT5=
EXTT6=
EXTT7=
EXTT8=
EXTT9=
EXTT10=
EXTT11=
PLAYORDER=
